<svg xmlns="http://www.w3.org/2000/svg" xmlns:svg="http://www.w3.org/2000/svg" id="svg1151" width="297mm" height="210mm" version="1.1" viewBox="0 0 297 210"><defs id="defs1095"><marker id="Arrow2Mend" orient="auto" overflow="visible"><path id="path1080" fill-rule="evenodd" stroke="#000" stroke-linejoin="round" stroke-width=".625" d="m8.7186 4.0337-10.926-4.0177 10.926-4.0177c-1.7455 2.3721-1.7354 5.6175-6e-7 8.0354z" transform="scale(.6) rotate(180) translate(0)"/></marker><marker id="Arrow2Mend-8" orient="auto" overflow="visible"><path id="path1083" fill-rule="evenodd" stroke="#000" stroke-linejoin="round" stroke-width=".625" d="m8.7186 4.0337-10.926-4.0177 10.926-4.0177c-1.7455 2.3721-1.7354 5.6175-6e-7 8.0354z" transform="scale(-.6)"/></marker><marker id="Arrow2Mend-8-9" orient="auto" overflow="visible"><path id="path1086" fill-rule="evenodd" stroke="#000" stroke-linejoin="round" stroke-width=".625" d="m8.7186 4.0337-10.926-4.0177 10.926-4.0177c-1.7455 2.3721-1.7354 5.6175-6e-7 8.0354z" transform="scale(-.6)"/></marker><marker id="Arrow2Mend-8-7" orient="auto" overflow="visible"><path id="path1089" fill-rule="evenodd" stroke="#000" stroke-linejoin="round" stroke-width=".625" d="m8.7186 4.0337-10.926-4.0177 10.926-4.0177c-1.7455 2.3721-1.7354 5.6175-6e-7 8.0354z" transform="scale(-.6)"/></marker><marker id="Arrow2Mend-6" orient="auto" overflow="visible"><path id="path1092" fill-rule="evenodd" stroke="#000" stroke-linejoin="round" stroke-width=".625" d="m8.7186 4.0337-10.926-4.0177 10.926-4.0177c-1.7455 2.3721-1.7354 5.6175-6e-7 8.0354z" transform="scale(-.6)"/></marker></defs><metadata id="metadata1097"/><g id="g1109" fill="none" stroke="#000" stroke-width="2.5"><path id="path1099" marker-end="url(#Arrow2Mend-6)" d="m38.506 86.081c7.8286-20.414 21.67-36.824 51.576-51.112"/><path id="path1101" marker-end="url(#Arrow2Mend)" d="m203.25 31.295c24.518 7.7012 44.967 20.42 60.319 49.114"/><path id="path1103" marker-end="url(#Arrow2Mend-8-7)" d="m74.21 157.45c-0.56038 5.9227-24.984-11.991-34.938-33.605"/><path id="path1105" marker-end="url(#Arrow2Mend-8-9)" d="m164.26 179.55c0.59824 2.7543-19.317 2.2728-29.818 1.0951"/><path id="path1107" marker-end="url(#Arrow2Mend-8)" d="m263.37 119.11c4.3403 0.56038-8.7876 24.984-24.626 34.938"/></g><rect id="rect1111" width="122.817" height="36.409" x="93.249" y="11.774" fill="#ffd6d8" stroke="#000" stroke-linejoin="round" stroke-width="1.058" style="fill:#e6f1ff;fill-opacity:1"/><text id="text1117" x="98.049" y="25.819" stroke-width=".265" font-family="Mulish" font-size="11.289" font-weight="600" style="line-height:1.25" xml:space="preserve"><tspan id="tspan1761" x="98.049" y="25.819"><tspan id="tspan1113" x="98.049" y="25.819">1. Define desired</tspan></tspan><tspan id="tspan1763" x="98.049" y="39.93"> learning outcomes</tspan></text><rect id="rect1119" width="130.26" height="36.409" x="159.76" y="84.13" fill="#ffd6d8" stroke="#000" stroke-linejoin="round" stroke-width="1.058" style="fill:#e6f1ff;fill-opacity:1"/><text id="text1125" x="164.665" y="98.174" stroke-width=".265" font-family="Mulish" font-size="11.289" font-weight="600" style="line-height:1.25" xml:space="preserve"><tspan id="tspan1766" x="164.665" y="98.174"><tspan id="tspan1121" x="164.665" y="98.174">2. Design assessments</tspan></tspan><tspan id="tspan1768" x="164.665" y="112.285"> for these outcomes</tspan></text><rect id="rect1127" width="107.03" height="36.409" x="162.6" y="156.49" fill="#ffd6d8" stroke="#000" stroke-linejoin="round" stroke-width="1.058" style="fill:#e6f1ff;fill-opacity:1"/><text id="text1133" x="167.274" y="171.749" stroke-width=".265" font-family="Mulish" font-size="11.289" font-weight="600" style="line-height:1.25" xml:space="preserve"><tspan id="tspan1129" x="167.274" y="171.749">3. Develop</tspan><tspan id="tspan1131" x="167.274" y="185.86"> relevant content</tspan></text><rect id="rect1135" width="106.83" height="36.409" x="24.375" y="156.49" fill="#ffd6d8" stroke="#000" stroke-linejoin="round" stroke-width="1.058" style="fill:#e6f1ff;fill-opacity:1"/><text id="text1141" x="28.841" y="170.394" stroke-width=".265" font-family="Mulish" font-size="11.289" font-weight="600" style="line-height:1.25" xml:space="preserve"><tspan id="tspan1137" x="28.841" y="170.394">4. Assess</tspan><tspan id="tspan1139" x="28.841" y="184.505"> learner progress</tspan></text><rect id="rect1143" width="75.161" height="36.409" x="13.254" y="84.13" fill="#ffd6d8" stroke="#000" stroke-linejoin="round" stroke-width="1.058" style="fill:#e6f1ff;fill-opacity:1"/><text id="text1149" x="17.582" y="99.393" stroke-width=".265" font-family="Mulish" font-size="11.289" font-weight="600" style="line-height:1.25" xml:space="preserve"><tspan id="tspan1145" x="17.582" y="99.393">5. Evaluate</tspan><tspan id="tspan1147" x="17.582" y="113.505"> curriculum</tspan></text></svg>